<svg width="896" height="215" viewBox="0 0 896 215" fill="none" xmlns="http://www.w3.org/2000/svg">
<path d="M52.3128 208H14.0842C6.30573 208 0 201.908 0 194.393V116.636C0 109.12 6.30573 103.028 14.0842 103.028H52.3128V208ZM122.734 208H84.5053C76.7268 208 70.4211 201.908 70.4211 194.393V13.6075C70.4211 6.09228 76.7268 3.75716e-07 84.5053 0H122.734V208ZM191.399 110.532C201.821 110.532 210.929 112.528 218.722 116.52C226.515 120.511 232.524 126.135 236.75 133.392C241.07 140.559 243.228 148.859 243.228 158.293C243.228 167.637 241.07 175.939 236.75 183.196C232.524 190.453 226.468 196.078 218.581 200.069C210.786 204.06 201.726 206.056 191.399 206.056H154.357V110.532H191.399ZM297.095 110.532C304.887 110.532 311.509 111.846 316.953 114.477C322.495 117.108 326.625 120.738 329.347 125.364C332.072 129.9 333.432 134.98 333.432 140.604C333.432 146.954 331.555 152.624 327.798 157.614C324.136 162.603 318.69 166.141 311.461 168.227L334.277 206.056H307.094L286.531 169.997H280.757V206.056H256.673V110.532H297.095ZM441.492 206.056H416L410.084 189.183H373.186L367.268 206.056H342.057L377.831 110.532H405.718L441.492 206.056ZM495.04 182.651L519.688 110.532H545.182L510.11 206.056H479.972L444.9 110.532H470.534L495.04 182.651ZM579.594 206.056H566.777V111.212H579.594V206.056ZM665.787 186.461V111.075H678.604V206.056H665.787L614.239 130.535V206.056H601.424V111.075H614.239L665.787 186.461ZM760.86 121.281H734.1V206.056H721.283V121.281H694.382V111.212H760.86V121.281ZM829.438 121.281H789.439V152.987H825.215V163.193H789.439V195.85H829.438V206.056H776.622V111.075H829.438V121.281ZM861.635 195.987H896V206.056H848.818V111.212H861.635V195.987ZM178.44 185.916H189.848C198.956 185.916 206.046 183.512 211.116 178.704C216.187 173.897 218.722 167.092 218.722 158.293C218.722 149.494 216.187 142.646 211.116 137.747C206.046 132.849 198.956 130.399 189.848 130.399H178.44V185.916ZM379.522 171.221H403.887L391.634 136.249L379.522 171.221ZM280.757 153.532H295.686C300.099 153.532 303.386 152.488 305.545 150.402C307.799 148.315 308.925 145.367 308.925 141.557C308.925 137.929 307.799 135.071 305.545 132.984C303.386 130.898 300.099 129.854 295.686 129.854H280.757V153.532ZM232.251 39.7651C234.021 39.7651 235.663 39.9663 237.176 40.3707C238.689 40.775 240.009 41.4134 241.136 42.2843C242.295 43.1549 243.194 44.2595 243.838 45.5969C244.514 46.903 244.884 48.4735 244.949 50.3086H240.605C240.347 47.9137 239.444 46.1873 237.899 45.1298C236.386 44.0416 234.44 43.4973 232.058 43.4973C231.092 43.4973 230.142 43.5898 229.209 43.7762C228.275 43.9628 227.438 44.275 226.698 44.7103C225.989 45.1457 225.41 45.7369 224.959 46.4833C224.541 47.1985 224.331 48.1003 224.331 49.1885C224.331 50.2145 224.635 51.0547 225.247 51.7076C225.891 52.3295 226.728 52.8429 227.758 53.2472C228.82 53.6516 230.013 53.9943 231.333 54.2742C232.653 54.523 233.989 54.8024 235.341 55.1134C236.726 55.4242 238.078 55.798 239.396 56.2333C240.715 56.6376 241.89 57.1983 242.921 57.9134C243.983 58.6286 244.82 59.5304 245.432 60.6186C246.076 61.7072 246.399 63.0763 246.399 64.7247C246.399 66.4976 245.981 68.0226 245.144 69.2978C244.339 70.5417 243.291 71.5685 242.003 72.377C240.717 73.1542 239.269 73.7131 237.659 74.0552C236.082 74.4284 234.504 74.6152 232.927 74.6152C230.995 74.6152 229.158 74.3831 227.42 73.9166C225.714 73.45 224.201 72.75 222.881 71.817C221.593 70.8528 220.563 69.6396 219.79 68.1779C219.05 66.6852 218.682 64.9275 218.682 62.9062H223.028C223.028 64.3054 223.301 65.519 223.849 66.5452C224.428 67.5401 225.168 68.364 226.068 69.0169C227.001 69.6701 228.082 70.1524 229.305 70.4634C230.529 70.7744 231.784 70.9305 233.072 70.9305C234.102 70.9305 235.132 70.8361 236.162 70.6496C237.225 70.4628 238.174 70.1528 239.011 69.7175C239.848 69.251 240.524 68.6287 241.039 67.8514C241.554 67.0738 241.812 66.0781 241.812 64.8653C241.812 63.7145 241.49 62.7804 240.846 62.0651C240.235 61.3499 239.398 60.7749 238.335 60.3394C237.305 59.8731 236.13 59.4995 234.81 59.2195C233.49 58.9396 232.138 58.6603 230.754 58.3804C229.402 58.0693 228.064 57.7266 226.744 57.3534C225.426 56.949 224.235 56.4357 223.173 55.8138C222.142 55.1608 221.305 54.337 220.662 53.3421C220.05 52.3157 219.744 51.0391 219.744 49.5151C219.744 47.8361 220.096 46.39 220.804 45.1772C221.513 43.9331 222.448 42.9213 223.607 42.1437C224.798 41.3352 226.134 40.7439 227.615 40.3707C229.128 39.9663 230.673 39.7651 232.251 39.7651ZM279.19 39.7651C281.055 39.7651 282.809 39.9828 284.451 40.4181C286.125 40.8224 287.606 41.4754 288.894 42.3772C290.213 43.2792 291.308 44.4307 292.177 45.8304C293.079 47.1987 293.69 48.8621 294.012 50.8212H289.427C289.201 49.5462 288.783 48.4578 288.171 47.556C287.56 46.6231 286.803 45.8613 285.902 45.2703C285 44.6794 283.968 44.2441 282.811 43.9642C281.684 43.6534 280.477 43.4973 279.19 43.4973C277.097 43.4973 275.292 43.9016 273.779 44.7103C272.298 45.519 271.075 46.5926 270.109 47.9298C269.176 49.2361 268.484 50.7452 268.033 52.4557C267.582 54.1348 267.357 55.8618 267.357 57.6343C267.357 59.3758 267.616 61.0556 268.131 62.6725C268.647 64.2586 269.403 65.6734 270.401 66.9173C271.397 68.1301 272.62 69.1097 274.069 69.8559C275.55 70.5713 277.258 70.9305 279.19 70.9305C280.992 70.9303 282.586 70.6492 283.97 70.0896C285.354 69.5297 286.511 68.7679 287.445 67.8039C288.411 66.8086 289.135 65.657 289.618 64.3507C290.101 63.0139 290.31 61.5837 290.246 60.0605H279.236V56.3264H294.35V73.8692H291.453L290.246 69.7175C288.894 71.4585 287.22 72.7178 285.226 73.4951C283.23 74.2416 281.218 74.615 279.19 74.6152C276.614 74.6152 274.31 74.1656 272.282 73.2636C270.254 72.3305 268.534 71.0847 267.117 69.5295C265.701 67.9744 264.62 66.1864 263.88 64.1647C263.14 62.1432 262.771 60.043 262.771 57.866C262.771 55.4402 263.109 53.1386 263.785 50.9616C264.494 48.7534 265.524 46.8257 266.876 45.1772C268.26 43.5288 269.966 42.2213 271.995 41.2571C274.055 40.2622 276.453 39.7651 279.19 39.7651ZM360.965 39.7651C362.735 39.7651 364.377 39.9665 365.89 40.3707C367.403 40.775 368.723 41.4134 369.85 42.2843C371.009 43.1549 371.91 44.2595 372.554 45.5969C373.23 46.903 373.6 48.4737 373.664 50.3086H369.318C369.061 47.9139 368.16 46.1873 366.614 45.1298C365.101 44.0414 363.154 43.4973 360.771 43.4973C359.806 43.4973 358.854 43.5898 357.922 43.7762C356.989 43.9628 356.15 44.2748 355.411 44.7103C354.703 45.1457 354.124 45.7371 353.673 46.4833C353.254 47.1985 353.045 48.1001 353.045 49.1885C353.045 50.2147 353.351 51.0547 353.963 51.7076C354.607 52.3297 355.444 52.8429 356.474 53.2472C357.536 53.6516 358.727 53.9943 360.047 54.2742C361.367 54.523 362.705 54.8024 364.055 55.1134C365.439 55.4242 366.791 55.798 368.111 56.2333C369.431 56.6376 370.606 57.1981 371.636 57.9134C372.699 58.6286 373.536 59.5302 374.147 60.6186C374.791 61.7072 375.113 63.0763 375.113 64.7247C375.113 66.4976 374.697 68.0226 373.86 69.2978C373.055 70.5419 372.007 71.5683 370.719 72.377C369.431 73.1544 367.983 73.7131 366.373 74.0552C364.795 74.4284 363.218 74.6152 361.641 74.6152C359.709 74.6152 357.874 74.3831 356.136 73.9166C354.429 73.45 352.916 72.75 351.597 71.817C350.309 70.853 349.279 69.6396 348.506 68.1779C347.766 66.6852 347.395 64.9275 347.395 62.9062H351.741C351.741 64.3054 352.015 65.519 352.562 66.5452C353.142 67.5405 353.882 68.3638 354.784 69.0169C355.717 69.6701 356.796 70.1524 358.019 70.4634C359.242 70.7742 360.498 70.9303 361.785 70.9305C362.814 70.9305 363.846 70.8361 364.876 70.6496C365.938 70.463 366.888 70.1528 367.725 69.7175C368.562 69.251 369.238 68.6289 369.753 67.8514C370.268 67.0738 370.526 66.0781 370.526 64.8653C370.526 63.7145 370.204 62.7804 369.56 62.0651C368.948 61.3501 368.111 60.7749 367.049 60.3394C366.019 59.8731 364.844 59.4993 363.524 59.2195C362.204 58.9396 360.852 58.6603 359.468 58.3804C358.115 58.0693 356.78 57.7266 355.46 57.3534C354.14 56.949 352.949 56.4358 351.886 55.8138C350.856 55.1608 350.019 54.3372 349.375 53.3421C348.764 52.3157 348.46 51.0391 348.46 49.5151C348.46 47.8359 348.812 46.39 349.52 45.1772C350.228 43.9331 351.162 42.9213 352.321 42.1437C353.512 41.3354 354.848 40.7437 356.329 40.3707C357.842 39.9663 359.387 39.7651 360.965 39.7651ZM412.801 61.8316C412.801 64.8171 413.621 67.0878 415.263 68.6429C416.905 70.167 419.271 70.9305 422.362 70.9305C425.291 70.9305 427.512 70.167 429.026 68.6429C430.571 67.0878 431.343 64.8169 431.343 61.8316V40.5586H435.931V61.8316C435.931 66.0925 434.756 69.297 432.406 71.4431C430.056 73.5581 426.708 74.6152 422.362 74.6152C417.919 74.6152 414.442 73.6048 411.931 71.5835C409.452 69.5307 408.213 66.2793 408.213 61.8316V40.5586H412.801V61.8316ZM504.32 39.7651C507.056 39.7651 509.457 40.2474 511.517 41.2116C513.575 42.1758 515.299 43.4669 516.684 45.0843C518.068 46.7014 519.096 48.568 519.772 50.6826C520.48 52.7661 520.835 54.9427 520.835 57.2128C520.835 59.4833 520.48 61.6776 519.772 63.7926C519.096 65.8759 518.068 67.7266 516.684 69.3435C515.299 70.9609 513.577 72.252 511.517 73.2162C509.457 74.1493 507.056 74.6152 504.32 74.6152C501.583 74.6152 499.185 74.1491 497.125 73.2162C495.064 72.252 493.344 70.9607 491.96 69.3435C490.576 67.7264 489.527 65.8763 488.819 63.7926C488.143 61.6776 487.805 59.4833 487.805 57.2128C487.805 54.9429 488.143 52.7661 488.819 50.6826C489.527 48.5676 490.576 46.7016 491.96 45.0843C493.344 43.4671 495.064 42.1758 497.125 41.2116C499.185 40.2474 501.583 39.7651 504.32 39.7651ZM168.981 40.5586C174.293 40.5586 178.381 41.8644 181.246 44.4768C184.111 47.0895 185.543 51.0716 185.543 56.4213C185.543 59.2201 185.222 61.7087 184.578 63.8857C183.935 66.0316 182.936 67.8506 181.584 69.3435C180.232 70.8053 178.509 71.926 176.416 72.7036C174.324 73.4808 171.846 73.8692 168.981 73.8692H157.151V40.5586H168.981ZM214.951 44.2908H195.733V54.8817H213.65V58.6138H195.733V70.137H215.096V73.8692H191.145V40.5586H214.951V44.2908ZM256.747 73.8692H252.162V40.5586H256.747V73.8692ZM324.082 67.5705H324.179V40.5586H328.525V73.8692H323.503L305.491 47.1363H305.394V73.8692H301.048V40.5586H305.925L324.082 67.5705ZM404.585 44.2908H393.093V73.8692H388.505V44.2908H377.013V40.5586H404.585V44.2908ZM455.081 40.5586C460.393 40.5586 464.482 41.8642 467.347 44.4768C470.212 47.0895 471.644 51.0718 471.644 56.4213C471.644 59.2201 471.322 61.7087 470.679 63.8857C470.035 66.0313 469.037 67.8508 467.685 69.3435C466.333 70.8053 464.61 71.926 462.518 72.7036C460.425 73.4811 457.946 73.8692 455.081 73.8692H443.251V40.5586H455.081ZM482.026 73.8692H477.439V40.5586H482.026V73.8692ZM504.32 43.4973C502.229 43.4973 500.427 43.9018 498.913 44.7103C497.4 45.4879 496.159 46.5306 495.193 47.8369C494.227 49.1428 493.521 50.6198 493.071 52.2677C492.62 53.8848 492.394 55.5337 492.394 57.2128C492.394 58.8924 492.62 60.5572 493.071 62.2056C493.521 63.8228 494.227 65.2846 495.193 66.5909C496.159 67.8972 497.4 68.9543 498.913 69.763C500.427 70.5404 502.227 70.9305 504.32 70.9305C506.412 70.9305 508.217 70.5406 509.73 69.763C511.243 68.9543 512.483 67.8968 513.446 66.5909C514.412 65.2846 515.12 63.8228 515.571 62.2056C516.022 60.5572 516.247 58.8924 516.247 57.2128C516.247 55.5337 516.022 53.8848 515.571 52.2677C515.12 50.6198 514.412 49.1428 513.446 47.8369C512.483 46.5308 511.243 45.4879 509.73 44.7103C508.217 43.9016 506.412 43.4973 504.32 43.4973ZM161.737 70.137H169.366C169.881 70.137 170.526 70.1061 171.298 70.0439C172.07 69.9506 172.892 69.7638 173.762 69.4839C174.631 69.173 175.483 68.7374 176.32 68.1779C177.189 67.6181 177.963 66.8561 178.639 65.8923C179.315 64.9281 179.863 63.7295 180.281 62.2987C180.732 60.8369 180.957 59.0794 180.957 57.0268C180.957 55.0364 180.747 53.2628 180.328 51.7076C179.942 50.122 179.283 48.7847 178.35 47.6963C177.448 46.5766 176.271 45.7371 174.823 45.1772C173.374 44.5866 171.588 44.2908 169.465 44.2908H161.737V70.137ZM447.838 70.137H455.468C455.983 70.137 456.627 70.1061 457.399 70.0439C458.172 69.9506 458.993 69.7638 459.862 69.4839C460.731 69.1728 461.584 68.7378 462.421 68.1779C463.29 67.6183 464.063 66.8559 464.737 65.8923C465.413 64.9281 465.962 63.7295 466.381 62.2987C466.832 60.8369 467.057 59.0796 467.057 57.0268C467.057 55.0364 466.848 53.2628 466.429 51.7076C466.043 50.1218 465.383 48.7849 464.449 47.6963C463.548 46.5768 462.373 45.7371 460.924 45.1772C459.476 44.5863 457.689 44.2908 455.564 44.2908H447.838V70.137Z" fill="white"/>
</svg>
