<svg width="32" height="8" viewBox="0 0 32 8" fill="none" xmlns="http://www.w3.org/2000/svg">
<path d="M1.86832 7H0.503008C0.225205 7 0 6.79497 0 6.54206V3.92523C0 3.67232 0.225205 3.46729 0.503008 3.46729H1.86832V7ZM4.38335 7H3.01805C2.74024 7 2.51504 6.79497 2.51504 6.54206V0.457944C2.51504 0.205029 2.74024 1.26443e-08 3.01805 0H4.38335V7ZM6.83566 3.71984C7.20789 3.71984 7.53319 3.78701 7.8115 3.92133C8.0898 4.05567 8.30444 4.24494 8.45535 4.48917C8.60963 4.73034 8.68673 5.00968 8.68673 5.32718C8.68673 5.64163 8.60963 5.92101 8.45535 6.16525C8.30444 6.40948 8.08815 6.59878 7.80647 6.73308C7.52809 6.86739 7.20451 6.93458 6.83566 6.93458H5.51274V3.71984H6.83566ZM10.6105 3.71984C10.8888 3.71984 11.1253 3.76406 11.3198 3.85259C11.5177 3.94113 11.6652 4.06328 11.7624 4.21898C11.8597 4.37163 11.9083 4.5426 11.9083 4.73188C11.9083 4.94558 11.8412 5.13639 11.7071 5.30431C11.5763 5.47221 11.3818 5.59128 11.1236 5.6615L11.9385 6.93458H10.9677L10.2333 5.72104H10.027V6.93458H9.16689V3.71984H10.6105ZM15.7676 6.93458H14.8571L14.6459 6.36675H13.3281L13.1167 6.93458H12.2163L13.494 3.71984H14.4899L15.7676 6.93458ZM17.68 6.14692L18.5603 3.71984H19.4708L18.2182 6.93458H17.1419L15.8893 3.71984H16.8048L17.68 6.14692ZM20.6998 6.93458H20.242V3.74271H20.6998V6.93458ZM23.7781 6.27513V3.7381H24.2359V6.93458H23.7781L21.9371 4.39302V6.93458H21.4794V3.7381H21.9371L23.7781 6.27513ZM27.1736 4.08156H26.2179V6.93458H25.7601V4.08156H24.7994V3.74271H27.1736V4.08156ZM29.6228 4.08156H28.1942V5.14861H29.472V5.49207H28.1942V6.59112H29.6228V6.93458H27.7365V3.7381H29.6228V4.08156ZM30.7727 6.5957H32V6.93458H30.3149V3.74271H30.7727V6.5957ZM6.37286 6.2568H6.78029C7.10557 6.2568 7.35879 6.1759 7.53987 6.01409C7.72096 5.85229 7.8115 5.6233 7.8115 5.32718C7.8115 5.03106 7.72096 4.80058 7.53987 4.63573C7.35879 4.47087 7.10557 4.38842 6.78029 4.38842H6.37286V6.2568ZM13.5543 5.76225H14.4245L13.9869 4.58531L13.5543 5.76225ZM10.027 5.16695H10.5602C10.7178 5.16695 10.8352 5.13182 10.9123 5.0616C10.9928 4.99138 11.033 4.89216 11.033 4.76394C11.033 4.64184 10.9928 4.54565 10.9123 4.47543C10.8352 4.40521 10.7178 4.37008 10.5602 4.37008H10.027V5.16695ZM8.29467 1.33825C8.35791 1.33825 8.41654 1.34502 8.47058 1.35863C8.52462 1.37224 8.57176 1.39372 8.612 1.42303C8.65339 1.45233 8.68551 1.4895 8.7085 1.53451C8.73265 1.57847 8.74587 1.63132 8.74817 1.69308H8.59303C8.58383 1.61248 8.55157 1.55438 8.49638 1.51879C8.44234 1.48217 8.37285 1.46385 8.28777 1.46385C8.25328 1.46385 8.21936 1.46696 8.18602 1.47324C8.15268 1.47952 8.12279 1.49003 8.09634 1.50467C8.07105 1.51933 8.05035 1.53922 8.03426 1.56434C8.01931 1.58841 8.01184 1.61876 8.01184 1.65538C8.01184 1.68991 8.02269 1.71819 8.04453 1.74016C8.06753 1.76109 8.09742 1.77837 8.13421 1.79197C8.17215 1.80558 8.21477 1.81712 8.2619 1.82654C8.30904 1.83491 8.35676 1.84431 8.40505 1.85478C8.45449 1.86524 8.50277 1.87782 8.54984 1.89247C8.59698 1.90607 8.63895 1.92494 8.67574 1.94901C8.71368 1.97308 8.74357 2.00343 8.76542 2.04005C8.78841 2.07668 8.79998 2.12276 8.79998 2.17824C8.79998 2.2379 8.78503 2.28922 8.75514 2.33214C8.7264 2.374 8.68896 2.40856 8.64297 2.43576C8.59705 2.46192 8.54531 2.48073 8.48783 2.49224C8.43149 2.5048 8.37515 2.51109 8.31882 2.51109C8.24983 2.51109 8.18423 2.50328 8.12214 2.48758C8.0612 2.47188 8.00717 2.44832 7.96003 2.41692C7.91404 2.38447 7.87725 2.34364 7.84965 2.29445C7.82321 2.24421 7.81006 2.18506 7.81006 2.11704H7.96527C7.96527 2.16413 7.97505 2.20497 7.99459 2.2395C8.01529 2.27298 8.04173 2.30071 8.07385 2.32268C8.10719 2.34467 8.14578 2.3609 8.18947 2.37136C8.23316 2.38183 8.278 2.38709 8.32399 2.38709C8.36078 2.38709 8.39757 2.38391 8.43436 2.37763C8.47231 2.37134 8.50622 2.36091 8.53612 2.34626C8.56601 2.33056 8.59015 2.30962 8.60855 2.28346C8.62695 2.25729 8.63614 2.22378 8.63614 2.18297C8.63614 2.14424 8.62465 2.1128 8.60165 2.08873C8.57981 2.06466 8.54991 2.04531 8.51197 2.03065C8.47518 2.01496 8.43322 2.00239 8.38608 1.99297C8.33894 1.98354 8.29065 1.97414 8.24121 1.96472C8.19292 1.95426 8.14514 1.94272 8.098 1.93016C8.05093 1.91655 8.00839 1.89928 7.97045 1.87835C7.93366 1.85637 7.90376 1.82865 7.88077 1.79517C7.85892 1.76062 7.848 1.71766 7.848 1.66637C7.848 1.60987 7.86058 1.5612 7.88587 1.52039C7.91116 1.47852 7.94458 1.44447 7.98597 1.4183C8.02851 1.39109 8.07622 1.37119 8.12911 1.35863C8.18315 1.34502 8.23834 1.33825 8.29467 1.33825ZM9.97105 1.33825C10.0377 1.33825 10.1003 1.34558 10.159 1.36022C10.2187 1.37383 10.2716 1.39581 10.3176 1.42616C10.3648 1.45651 10.4039 1.49527 10.4349 1.54237C10.4671 1.58842 10.4889 1.6444 10.5004 1.71033H10.3367C10.3286 1.66742 10.3137 1.63079 10.2918 1.60044C10.27 1.56905 10.243 1.54341 10.2108 1.52352C10.1786 1.50363 10.1417 1.48899 10.1004 1.47956C10.0602 1.4691 10.017 1.46385 9.97105 1.46385C9.89632 1.46385 9.83186 1.47746 9.77783 1.50467C9.72494 1.53189 9.68125 1.56802 9.64676 1.61302C9.61341 1.65699 9.5887 1.70777 9.5726 1.76533C9.5565 1.82184 9.54846 1.87996 9.54846 1.93961C9.54846 1.99823 9.55773 2.05476 9.57612 2.10917C9.59452 2.16255 9.62154 2.21016 9.65718 2.25202C9.69275 2.29284 9.73644 2.32581 9.78817 2.35092C9.84106 2.375 9.90207 2.38709 9.97105 2.38709C10.0354 2.38708 10.0924 2.37762 10.1418 2.35878C10.1912 2.33994 10.2325 2.3143 10.2659 2.28186C10.3004 2.24837 10.3262 2.20961 10.3435 2.16565C10.3607 2.12066 10.3682 2.07253 10.3659 2.02127H9.97271V1.8956H10.5125V2.48598H10.409L10.3659 2.34626C10.3176 2.40485 10.2578 2.44723 10.1866 2.47339C10.1153 2.49852 10.0435 2.51108 9.97105 2.51109C9.87907 2.51109 9.7968 2.49596 9.72436 2.4656C9.65193 2.4342 9.59049 2.39227 9.5399 2.33994C9.48932 2.2876 9.45073 2.22743 9.42428 2.15939C9.39784 2.09136 9.38469 2.02068 9.38469 1.94741C9.38469 1.86577 9.39676 1.78832 9.42091 1.71505C9.4462 1.64074 9.48299 1.57586 9.53128 1.52039C9.58072 1.46491 9.64166 1.42091 9.71409 1.38846C9.78767 1.35498 9.87333 1.33825 9.97105 1.33825ZM12.8916 1.33825C12.9548 1.33825 13.0135 1.34503 13.0675 1.35863C13.1215 1.37224 13.1687 1.39372 13.2089 1.42303C13.2503 1.45233 13.2825 1.4895 13.3055 1.53451C13.3296 1.57847 13.3429 1.63133 13.3452 1.69308H13.1899C13.1807 1.61249 13.1486 1.55438 13.0934 1.51879C13.0393 1.48216 12.9698 1.46385 12.8847 1.46385C12.8502 1.46385 12.8162 1.46696 12.7829 1.47324C12.7496 1.47952 12.7196 1.49002 12.6933 1.50467C12.668 1.51933 12.6473 1.53923 12.6312 1.56434C12.6162 1.58841 12.6088 1.61875 12.6088 1.65538C12.6088 1.68992 12.6197 1.71819 12.6415 1.74016C12.6645 1.7611 12.6944 1.77837 12.7312 1.79197C12.7691 1.80558 12.8117 1.81712 12.8588 1.82654C12.906 1.83491 12.9537 1.84431 13.002 1.85478C13.0514 1.86524 13.0997 1.87782 13.1468 1.89247C13.194 1.90607 13.2359 1.92493 13.2727 1.94901C13.3107 1.97308 13.3406 2.00342 13.3624 2.04005C13.3854 2.07668 13.3969 2.12276 13.3969 2.17824C13.3969 2.2379 13.382 2.28922 13.3521 2.33214C13.3234 2.37401 13.2859 2.40855 13.24 2.43576C13.194 2.46193 13.1422 2.48073 13.0847 2.49224C13.0284 2.5048 12.9721 2.51109 12.9157 2.51109C12.8467 2.51109 12.7812 2.50328 12.7191 2.48758C12.6582 2.47188 12.6042 2.44832 12.557 2.41692C12.511 2.38447 12.4742 2.34364 12.4466 2.29445C12.4202 2.24421 12.407 2.18506 12.407 2.11704H12.5622C12.5622 2.16413 12.572 2.20497 12.5915 2.2395C12.6122 2.273 12.6386 2.3007 12.6708 2.32268C12.7042 2.34467 12.7427 2.3609 12.7864 2.37136C12.8301 2.38183 12.8749 2.38708 12.9209 2.38709C12.9576 2.38709 12.9945 2.38391 13.0313 2.37763C13.0692 2.37135 13.1031 2.36091 13.133 2.34626C13.1629 2.33056 13.1871 2.30963 13.2055 2.28346C13.2239 2.25729 13.2331 2.22378 13.2331 2.18297C13.2331 2.14424 13.2216 2.1128 13.1986 2.08873C13.1767 2.06467 13.1468 2.04531 13.1089 2.03065C13.0721 2.01496 13.0301 2.00238 12.983 1.99297C12.9359 1.98354 12.8876 1.97414 12.8381 1.96472C12.7898 1.95426 12.7421 1.94272 12.695 1.93016C12.6478 1.91655 12.6053 1.89928 12.5674 1.87835C12.5306 1.85637 12.5007 1.82866 12.4777 1.79517C12.4558 1.76062 12.445 1.71766 12.445 1.66637C12.445 1.60986 12.4576 1.5612 12.4829 1.52039C12.5082 1.47852 12.5415 1.44447 12.5829 1.4183C12.6254 1.3911 12.6731 1.37118 12.726 1.35863C12.7801 1.34502 12.8353 1.33825 12.8916 1.33825ZM14.7429 2.08087C14.7429 2.18134 14.7722 2.25776 14.8308 2.3101C14.8895 2.36139 14.974 2.38709 15.0843 2.38709C15.189 2.38709 15.2683 2.36139 15.3223 2.3101C15.3775 2.25776 15.4051 2.18134 15.4051 2.08087V1.36495H15.569V2.08087C15.569 2.22427 15.527 2.33211 15.4431 2.40434C15.3591 2.47551 15.2396 2.51109 15.0843 2.51109C14.9257 2.51109 14.8015 2.47708 14.7118 2.40906C14.6233 2.33998 14.579 2.23055 14.579 2.08087V1.36495H14.7429V2.08087ZM18.0114 1.33825C18.1091 1.33825 18.1949 1.35448 18.2685 1.38693C18.342 1.41938 18.4035 1.46283 18.453 1.51726C18.5024 1.57168 18.5391 1.6345 18.5633 1.70566C18.5886 1.77578 18.6012 1.84903 18.6012 1.92543C18.6012 2.00184 18.5886 2.07569 18.5633 2.14687C18.5391 2.21698 18.5024 2.27926 18.453 2.33368C18.4035 2.38811 18.342 2.43156 18.2685 2.46401C18.1949 2.49541 18.1091 2.51109 18.0114 2.51109C17.9137 2.51109 17.828 2.4954 17.7545 2.46401C17.6809 2.43156 17.6194 2.3881 17.57 2.33368C17.5206 2.27925 17.4831 2.21699 17.4578 2.14687C17.4337 2.07569 17.4216 2.00184 17.4216 1.92543C17.4216 1.84904 17.4337 1.77578 17.4578 1.70566C17.4831 1.63449 17.5206 1.57169 17.57 1.51726C17.6194 1.46284 17.6809 1.41938 17.7545 1.38693C17.828 1.35448 17.9137 1.33825 18.0114 1.33825ZM6.03505 1.36495C6.22474 1.36495 6.37075 1.4089 6.47307 1.49682C6.5754 1.58474 6.62654 1.71876 6.62654 1.89879C6.62654 1.99299 6.61508 2.07674 6.59208 2.15C6.56909 2.22222 6.53343 2.28343 6.48514 2.33368C6.43685 2.38287 6.37532 2.42059 6.30058 2.44676C6.22586 2.47291 6.13734 2.48598 6.03505 2.48598H5.61253V1.36495H6.03505ZM7.67683 1.49056H6.99046V1.84698H7.63034V1.97258H6.99046V2.36038H7.68201V2.48598H6.82661V1.36495H7.67683V1.49056ZM9.16955 2.48598H9.00578V1.36495H9.16955V2.48598ZM11.5744 2.27401H11.5778V1.36495H11.733V2.48598H11.5537L10.9104 1.58632H10.9069V2.48598H10.7517V1.36495H10.9259L11.5744 2.27401ZM14.4495 1.49056H14.039V2.48598H13.8752V1.49056H13.4647V1.36495H14.4495V1.49056ZM16.2529 1.36495C16.4426 1.36495 16.5886 1.40889 16.691 1.49682C16.7933 1.58474 16.8444 1.71876 16.8444 1.89879C16.8444 1.99299 16.8329 2.07674 16.8099 2.15C16.787 2.22221 16.7513 2.28344 16.703 2.33368C16.6547 2.38287 16.5932 2.42059 16.5185 2.44676C16.4438 2.47292 16.3552 2.48598 16.2529 2.48598H15.8304V1.36495H16.2529ZM17.2152 2.48598H17.0514V1.36495H17.2152V2.48598ZM18.0114 1.46385C17.9368 1.46385 17.8724 1.47746 17.8183 1.50467C17.7643 1.53084 17.72 1.56593 17.6855 1.6099C17.651 1.65384 17.6258 1.70355 17.6097 1.75901C17.5936 1.81343 17.5855 1.86892 17.5855 1.92543C17.5855 1.98196 17.5936 2.03798 17.6097 2.09346C17.6258 2.14788 17.651 2.19708 17.6855 2.24104C17.72 2.285 17.7643 2.32058 17.8183 2.34779C17.8724 2.37396 17.9367 2.38709 18.0114 2.38709C18.0862 2.38709 18.1506 2.37396 18.2046 2.34779C18.2587 2.32058 18.3029 2.28499 18.3374 2.24104C18.3719 2.19708 18.3972 2.14788 18.4133 2.09346C18.4293 2.03798 18.4374 1.98196 18.4374 1.92543C18.4374 1.86892 18.4293 1.81343 18.4133 1.75901C18.3972 1.70355 18.3719 1.65384 18.3374 1.6099C18.3029 1.56594 18.2587 1.53084 18.2046 1.50467C18.1506 1.47746 18.0862 1.46385 18.0114 1.46385ZM5.77631 2.36038H6.0488C6.06719 2.36038 6.0902 2.35934 6.11778 2.35725C6.14537 2.35411 6.17473 2.34782 6.20577 2.3384C6.23681 2.32794 6.26726 2.31328 6.29714 2.29445C6.32818 2.27561 6.35581 2.24996 6.37995 2.21753C6.4041 2.18508 6.42367 2.14474 6.43862 2.09659C6.45471 2.0474 6.46275 1.98825 6.46275 1.91917C6.46275 1.85219 6.45524 1.7925 6.4403 1.74016C6.4265 1.6868 6.40296 1.64179 6.36963 1.60517C6.33744 1.56748 6.29541 1.53923 6.24367 1.52039C6.19194 1.50051 6.12816 1.49056 6.05231 1.49056H5.77631V2.36038ZM15.9942 2.36038H16.2667C16.2851 2.36038 16.3081 2.35934 16.3357 2.35725C16.3633 2.35411 16.3926 2.34782 16.4236 2.3384C16.4547 2.32793 16.4852 2.31329 16.515 2.29445C16.5461 2.27561 16.5737 2.24996 16.5978 2.21753C16.6219 2.18508 16.6415 2.14474 16.6565 2.09659C16.6726 2.0474 16.6806 1.98826 16.6806 1.91917C16.6806 1.85219 16.6731 1.7925 16.6582 1.74016C16.6444 1.68679 16.6208 1.6418 16.5875 1.60517C16.5553 1.56749 16.5133 1.53923 16.4616 1.52039C16.4098 1.5005 16.346 1.49056 16.2701 1.49056H15.9942V2.36038Z" fill="#18141B"/>
</svg>
